<svg width="2690" height="2690" viewBox="0 0 2690 2690" fill="none" xmlns="http://www.w3.org/2000/svg">
<rect width="2688" height="2688" transform="translate(1 1)" fill="#020817"/>
<g opacity="0.04">
<path d="M1 1V2689" stroke="#64748B" stroke-width="2"/>
<path d="M37.3252 1V2689" stroke="#64748B" stroke-width="2"/>
<path d="M73.6487 1V2689" stroke="#64748B" stroke-width="2"/>
<path d="M109.974 1V2689" stroke="#64748B" stroke-width="2"/>
<path d="M146.297 1V2689" stroke="#64748B" stroke-width="2"/>
<path d="M182.622 1V2689" stroke="#64748B" stroke-width="2"/>
<path d="M218.945 1V2689" stroke="#64748B" stroke-width="2"/>
<path d="M255.27 1V2689" stroke="#64748B" stroke-width="2"/>
<path d="M291.594 1V2689" stroke="#64748B" stroke-width="2"/>
<path d="M327.919 1V2689" stroke="#64748B" stroke-width="2"/>
<path d="M364.244 1V2689" stroke="#64748B" stroke-width="2"/>
<path d="M400.568 1V2689" stroke="#64748B" stroke-width="2"/>
<path d="M436.893 1V2689" stroke="#64748B" stroke-width="2"/>
<path d="M473.217 1V2689" stroke="#64748B" stroke-width="2"/>
<path d="M509.541 1V2689" stroke="#64748B" stroke-width="2"/>
<path d="M545.864 1V2689" stroke="#64748B" stroke-width="2"/>
<path d="M582.19 1V2689" stroke="#64748B" stroke-width="2"/>
<path d="M618.513 1V2689" stroke="#64748B" stroke-width="2"/>
<path d="M654.838 1V2689" stroke="#64748B" stroke-width="2"/>
<path d="M691.162 1V2689" stroke="#64748B" stroke-width="2"/>
<path d="M727.487 1V2689" stroke="#64748B" stroke-width="2"/>
<path d="M763.81 1V2689" stroke="#64748B" stroke-width="2"/>
<path d="M800.136 1V2689" stroke="#64748B" stroke-width="2"/>
<path d="M836.46 1V2689" stroke="#64748B" stroke-width="2"/>
<path d="M872.783 1V2689" stroke="#64748B" stroke-width="2"/>
<path d="M909.109 1V2689" stroke="#64748B" stroke-width="2"/>
<path d="M945.432 1V2689" stroke="#64748B" stroke-width="2"/>
<path d="M981.757 1V2689" stroke="#64748B" stroke-width="2"/>
<path d="M1018.08 1V2689" stroke="#64748B" stroke-width="2"/>
<path d="M1054.41 1V2689" stroke="#64748B" stroke-width="2"/>
<path d="M1090.73 1V2689" stroke="#64748B" stroke-width="2"/>
<path d="M1127.05 1V2689" stroke="#64748B" stroke-width="2"/>
<path d="M1163.38 1V2689" stroke="#64748B" stroke-width="2"/>
<path d="M1199.7 1V2689" stroke="#64748B" stroke-width="2"/>
<path d="M1236.03 1V2689" stroke="#64748B" stroke-width="2"/>
<path d="M1272.35 1V2689" stroke="#64748B" stroke-width="2"/>
<path d="M1308.68 1V2689" stroke="#64748B" stroke-width="2"/>
<path d="M1345 1V2689" stroke="#64748B" stroke-width="2"/>
<path d="M1381.33 1V2689" stroke="#64748B" stroke-width="2"/>
<path d="M1417.65 1V2689" stroke="#64748B" stroke-width="2"/>
<path d="M1453.97 1V2689" stroke="#64748B" stroke-width="2"/>
<path d="M1490.3 1V2689" stroke="#64748B" stroke-width="2"/>
<path d="M1526.62 1V2689" stroke="#64748B" stroke-width="2"/>
<path d="M1562.95 1V2689" stroke="#64748B" stroke-width="2"/>
<path d="M1599.27 1V2689" stroke="#64748B" stroke-width="2"/>
<path d="M1635.59 1V2689" stroke="#64748B" stroke-width="2"/>
<path d="M1671.92 1V2689" stroke="#64748B" stroke-width="2"/>
<path d="M1708.24 1V2689" stroke="#64748B" stroke-width="2"/>
<path d="M1744.57 1V2689" stroke="#64748B" stroke-width="2"/>
<path d="M1780.89 1V2689" stroke="#64748B" stroke-width="2"/>
<path d="M1817.22 1V2689" stroke="#64748B" stroke-width="2"/>
<path d="M1853.54 1V2689" stroke="#64748B" stroke-width="2"/>
<path d="M1889.86 1V2689" stroke="#64748B" stroke-width="2"/>
<path d="M1926.19 1V2689" stroke="#64748B" stroke-width="2"/>
<path d="M1962.51 1V2689" stroke="#64748B" stroke-width="2"/>
<path d="M1998.84 1V2689" stroke="#64748B" stroke-width="2"/>
<path d="M2035.16 1V2689" stroke="#64748B" stroke-width="2"/>
<path d="M2071.49 1V2689" stroke="#64748B" stroke-width="2"/>
<path d="M2107.81 1V2689" stroke="#64748B" stroke-width="2"/>
<path d="M2144.14 1V2689" stroke="#64748B" stroke-width="2"/>
<path d="M2180.46 1V2689" stroke="#64748B" stroke-width="2"/>
<path d="M2216.78 1V2689" stroke="#64748B" stroke-width="2"/>
<path d="M2253.11 1V2689" stroke="#64748B" stroke-width="2"/>
<path d="M2289.43 1V2689" stroke="#64748B" stroke-width="2"/>
<path d="M2325.76 1V2689" stroke="#64748B" stroke-width="2"/>
<path d="M2362.08 1V2689" stroke="#64748B" stroke-width="2"/>
<path d="M2398.41 1V2689" stroke="#64748B" stroke-width="2"/>
<path d="M2434.73 1V2689" stroke="#64748B" stroke-width="2"/>
<path d="M2471.05 1V2689" stroke="#64748B" stroke-width="2"/>
<path d="M2507.38 1V2689" stroke="#64748B" stroke-width="2"/>
<path d="M2543.7 1V2689" stroke="#64748B" stroke-width="2"/>
<path d="M2580.03 1V2689" stroke="#64748B" stroke-width="2"/>
<path d="M2616.35 1V2689" stroke="#64748B" stroke-width="2"/>
<path d="M2652.68 1V2689" stroke="#64748B" stroke-width="2"/>
<path d="M2689 1V2689" stroke="#64748B" stroke-width="2"/>
<path d="M1 1H2689" stroke="#64748B" stroke-width="2"/>
<path d="M1 37.3145H2689" stroke="#64748B" stroke-width="2"/>
<path d="M1 73.6465H2689" stroke="#64748B" stroke-width="2"/>
<path d="M1 109.963H2689" stroke="#64748B" stroke-width="2"/>
<path d="M1 146.293H2689" stroke="#64748B" stroke-width="2"/>
<path d="M1 182.609H2689" stroke="#64748B" stroke-width="2"/>
<path d="M1 218.941H2689" stroke="#64748B" stroke-width="2"/>
<path d="M1 255.271H2689" stroke="#64748B" stroke-width="2"/>
<path d="M1 291.588H2689" stroke="#64748B" stroke-width="2"/>
<path d="M1 327.92H2689" stroke="#64748B" stroke-width="2"/>
<path d="M1 364.234H2689" stroke="#64748B" stroke-width="2"/>
<path d="M1 400.566H2689" stroke="#64748B" stroke-width="2"/>
<path d="M1 436.881H2689" stroke="#64748B" stroke-width="2"/>
<path d="M1 473.213H2689" stroke="#64748B" stroke-width="2"/>
<path d="M1 509.541H2689" stroke="#64748B" stroke-width="2"/>
<path d="M1 545.859H2689" stroke="#64748B" stroke-width="2"/>
<path d="M1 582.189H2689" stroke="#64748B" stroke-width="2"/>
<path d="M1 618.506H2689" stroke="#64748B" stroke-width="2"/>
<path d="M1 654.836H2689" stroke="#64748B" stroke-width="2"/>
<path d="M1 691.154H2689" stroke="#64748B" stroke-width="2"/>
<path d="M1 727.482H2689" stroke="#64748B" stroke-width="2"/>
<path d="M1 763.801H2689" stroke="#64748B" stroke-width="2"/>
<path d="M1 800.129H2689" stroke="#64748B" stroke-width="2"/>
<path d="M1 836.459H2689" stroke="#64748B" stroke-width="2"/>
<path d="M1 872.775H2689" stroke="#64748B" stroke-width="2"/>
<path d="M1 909.105H2689" stroke="#64748B" stroke-width="2"/>
<path d="M1 945.424H2689" stroke="#64748B" stroke-width="2"/>
<path d="M1 981.752H2689" stroke="#64748B" stroke-width="2"/>
<path d="M1 1018.07H2689" stroke="#64748B" stroke-width="2"/>
<path d="M1 1054.4H2689" stroke="#64748B" stroke-width="2"/>
<path d="M1 1090.73H2689" stroke="#64748B" stroke-width="2"/>
<path d="M1 1127.04H2689" stroke="#64748B" stroke-width="2"/>
<path d="M1 1163.38H2689" stroke="#64748B" stroke-width="2"/>
<path d="M1 1199.69H2689" stroke="#64748B" stroke-width="2"/>
<path d="M1 1236.02H2689" stroke="#64748B" stroke-width="2"/>
<path d="M1 1272.34H2689" stroke="#64748B" stroke-width="2"/>
<path d="M1 1308.67H2689" stroke="#64748B" stroke-width="2"/>
<path d="M1 1345H2689" stroke="#64748B" stroke-width="2"/>
<path d="M1 1381.31H2689" stroke="#64748B" stroke-width="2"/>
<path d="M1 1417.65H2689" stroke="#64748B" stroke-width="2"/>
<path d="M1 1453.96H2689" stroke="#64748B" stroke-width="2"/>
<path d="M1 1490.29H2689" stroke="#64748B" stroke-width="2"/>
<path d="M1 1526.61H2689" stroke="#64748B" stroke-width="2"/>
<path d="M1 1562.94H2689" stroke="#64748B" stroke-width="2"/>
<path d="M1 1599.27H2689" stroke="#64748B" stroke-width="2"/>
<path d="M1 1635.59H2689" stroke="#64748B" stroke-width="2"/>
<path d="M1 1671.92H2689" stroke="#64748B" stroke-width="2"/>
<path d="M1 1708.23H2689" stroke="#64748B" stroke-width="2"/>
<path d="M1 1744.57H2689" stroke="#64748B" stroke-width="2"/>
<path d="M1 1780.88H2689" stroke="#64748B" stroke-width="2"/>
<path d="M1 1817.21H2689" stroke="#64748B" stroke-width="2"/>
<path d="M1 1853.54H2689" stroke="#64748B" stroke-width="2"/>
<path d="M1 1889.86H2689" stroke="#64748B" stroke-width="2"/>
<path d="M1 1926.19H2689" stroke="#64748B" stroke-width="2"/>
<path d="M1 1962.51H2689" stroke="#64748B" stroke-width="2"/>
<path d="M1 1998.84H2689" stroke="#64748B" stroke-width="2"/>
<path d="M1 2035.15H2689" stroke="#64748B" stroke-width="2"/>
<path d="M1 2071.48H2689" stroke="#64748B" stroke-width="2"/>
<path d="M1 2107.8H2689" stroke="#64748B" stroke-width="2"/>
<path d="M1 2144.13H2689" stroke="#64748B" stroke-width="2"/>
<path d="M1 2180.46H2689" stroke="#64748B" stroke-width="2"/>
<path d="M1 2216.78H2689" stroke="#64748B" stroke-width="2"/>
<path d="M1 2253.11H2689" stroke="#64748B" stroke-width="2"/>
<path d="M1 2289.42H2689" stroke="#64748B" stroke-width="2"/>
<path d="M1 2325.75H2689" stroke="#64748B" stroke-width="2"/>
<path d="M1 2362.07H2689" stroke="#64748B" stroke-width="2"/>
<path d="M1 2398.4H2689" stroke="#64748B" stroke-width="2"/>
<path d="M1 2434.73H2689" stroke="#64748B" stroke-width="2"/>
<path d="M1 2471.04H2689" stroke="#64748B" stroke-width="2"/>
<path d="M1 2507.38H2689" stroke="#64748B" stroke-width="2"/>
<path d="M1 2543.69H2689" stroke="#64748B" stroke-width="2"/>
<path d="M1 2580.02H2689" stroke="#64748B" stroke-width="2"/>
<path d="M1 2616.34H2689" stroke="#64748B" stroke-width="2"/>
<path d="M1 2652.67H2689" stroke="#64748B" stroke-width="2"/>
<path d="M1 2689H2689" stroke="#64748B" stroke-width="2"/>
</g>
</svg>
